<svg width="166" height="145" viewBox="0 0 166 145" fill="none" xmlns="http://www.w3.org/2000/svg">
<style>
path {
    stroke: black;
}
@media ( prefers-color-scheme: dark) {
    path {
        stroke: white;
    }
}
</style>
<rect x="3" y="15" width="160" height="127" stroke="url(#paint0_linear_1_16)" stroke-width="6"/>
<rect x="38.7232" y="0.357315" width="84.2249" height="63.1619" rx="5" fill="black"/>
<rect x="73.5997" y="46.1869" width="25.0173" height="1.55955" fill="white"/>
<path d="M67.3595 34.2359L75.0615 40.2395C75.1529 40.311 75.2178 40.3888 75.2562 40.4728C75.2952 40.5569 75.3153 40.6471 75.3163 40.7436C75.3174 40.8401 75.2994 40.9307 75.2623 41.0155C75.2258 41.1003 75.1626 41.1793 75.0728 41.2525L67.5066 47.4231C67.297 47.594 67.0337 47.681 66.7165 47.6841C66.3994 47.6872 66.1266 47.5994 65.898 47.4207C65.6694 47.242 65.5538 47.0321 65.5511 46.7909C65.5484 46.5497 65.6594 46.3376 65.8839 46.1545L72.4847 40.7712L65.7653 35.5179C65.5519 35.3511 65.4439 35.1442 65.4411 34.8972C65.4384 34.6498 65.5493 34.4345 65.7738 34.2514C65.9983 34.0683 66.2616 33.9752 66.5636 33.9723C66.8657 33.9694 67.131 34.0572 67.3595 34.2359Z" fill="#F8F8F8"/>
<rect x="38.7232" y="11.2742" width="84.2249" height="6.23821" fill="white"/>
<path d="M31.274 111.944C30.5687 112.312 29.8173 112.496 29.02 112.496C28.0387 112.373 27.088 112.128 26.168 111.76C25.2787 111.392 24.6193 110.947 24.19 110.426C23.9447 108.923 23.7453 107.543 23.592 106.286C23.4387 105.029 23.316 103.848 23.224 102.744C23.132 101.609 23.0707 100.536 23.04 99.524C23.0093 98.4813 22.994 97.4387 22.994 96.396C22.994 95.016 23.0093 93.5593 23.04 92.026C23.0707 90.4927 23.1013 88.8673 23.132 87.15C23.1933 85.402 23.2393 83.5467 23.27 81.584C23.3007 79.5907 23.316 77.4287 23.316 75.098C23.7147 75.098 24.3127 75.2207 25.11 75.466C25.9073 75.6807 26.6893 75.9413 27.456 76.248C28.2533 76.5547 28.9587 76.8767 29.572 77.214C30.1853 77.5207 30.5227 77.7813 30.584 77.996C30.2773 78.8547 30.0013 79.974 29.756 81.354C29.5413 82.734 29.3573 84.2673 29.204 85.954C29.0813 87.6407 28.9893 89.4193 28.928 91.29C28.8667 93.1607 28.836 95.016 28.836 96.856C28.836 98.236 28.8513 99.478 28.882 100.582C28.9127 101.655 28.9433 102.637 28.974 103.526C29.0353 104.385 29.112 105.197 29.204 105.964C29.296 106.7 29.4033 107.436 29.526 108.172C30.3847 105.565 31.32 102.959 32.332 100.352C33.3747 97.7453 34.4327 95.246 35.506 92.854C36.61 90.4313 37.6987 88.1773 38.772 86.092C39.8453 84.0067 40.8573 82.1973 41.808 80.664C42.7893 79.1 43.6633 77.8733 44.43 76.984C45.1967 76.064 45.8253 75.5733 46.316 75.512C46.6533 75.5733 47.006 75.7113 47.374 75.926C47.7727 76.11 48.1407 76.34 48.478 76.616C48.8153 76.892 49.122 77.1987 49.398 77.536C49.674 77.8733 49.8887 78.2107 50.042 78.548C48.9073 78.9467 47.6807 79.882 46.362 81.354C45.074 82.826 43.7707 84.6047 42.452 86.69C41.1333 88.7447 39.8453 90.9987 38.588 93.452C37.3613 95.8747 36.242 98.2513 35.23 100.582C34.2487 102.913 33.4053 105.09 32.7 107.114C31.9947 109.138 31.5193 110.748 31.274 111.944ZM43.7307 105.918C43.7307 105.642 43.746 105.305 43.7767 104.906C43.838 104.477 43.93 103.925 44.0527 103.25C44.1753 102.545 44.3287 101.701 44.5127 100.72C44.7273 99.7387 44.988 98.558 45.2947 97.178C45.356 96.8713 45.494 96.3807 45.7087 95.706C45.9233 95.0313 46.1993 94.326 46.5367 93.59C46.9047 92.8233 47.334 92.0873 47.8247 91.382C48.346 90.6767 48.9593 90.1553 49.6647 89.818C50.186 89.9407 50.876 90.2627 51.7347 90.784C52.5933 91.2747 53.3293 91.9647 53.9427 92.854C53.2373 93.6513 52.6393 94.4487 52.1487 95.246C51.6887 96.0433 51.2593 96.8713 50.8607 97.73C50.4927 98.5887 50.14 99.478 49.8027 100.398C49.496 101.318 49.1433 102.284 48.7447 103.296C48.4073 104.155 48.1007 105.044 47.8247 105.964C47.5487 106.853 47.3953 107.635 47.3647 108.31C47.3647 108.862 47.3493 109.245 47.3187 109.46C47.3187 109.705 47.242 109.828 47.0887 109.828C46.966 109.828 46.7207 109.751 46.3527 109.598C45.9847 109.445 45.6013 109.215 45.2027 108.908C44.8347 108.571 44.4973 108.157 44.1907 107.666C43.884 107.175 43.7307 106.593 43.7307 105.918ZM52.5167 85.954C52.5167 85.77 52.5627 85.494 52.6547 85.126C52.5013 84.9727 52.3633 84.7427 52.2407 84.436C52.1487 84.1293 52.1027 83.8533 52.1027 83.608C52.1027 83.332 52.1333 82.964 52.1947 82.504C52.2867 82.0133 52.394 81.492 52.5167 80.94C52.6393 80.388 52.7927 79.8207 52.9767 79.238C53.1607 78.6247 53.3447 78.0727 53.5287 77.582C53.8967 77.582 54.3413 77.6893 54.8627 77.904C55.4147 78.088 55.9667 78.3487 56.5187 78.686C57.0707 78.9927 57.5767 79.3453 58.0367 79.744C58.4967 80.112 58.8493 80.4647 59.0947 80.802C58.7573 81.1393 58.3127 81.6147 57.7607 82.228C57.2087 82.8107 56.672 83.4393 56.1507 84.114C55.6293 84.758 55.154 85.3713 54.7247 85.954C54.2953 86.5367 54.0193 86.9507 53.8967 87.196C53.5287 87.1347 53.2067 86.9813 52.9307 86.736C52.6547 86.46 52.5167 86.1993 52.5167 85.954ZM54.8318 100.904C54.8318 99.156 55.1844 97.4693 55.8898 95.844C56.6258 94.188 57.5764 92.7313 58.7418 91.474C59.9378 90.186 61.2871 89.1587 62.7898 88.392C64.3231 87.5947 65.9024 87.196 67.5278 87.196C69.1224 87.196 70.3491 87.5947 71.2078 88.392C72.0664 89.1893 72.4958 90.324 72.4958 91.796C72.4958 92.5013 72.3884 93.1913 72.1738 93.866C71.9898 94.51 71.7291 95.0927 71.3918 95.614C71.0851 96.1353 70.7171 96.5647 70.2878 96.902C69.8584 97.2087 69.4291 97.362 68.9998 97.362C68.6318 97.362 68.2484 97.2547 67.8498 97.04C67.4818 96.7947 67.1751 96.488 66.9298 96.12C68.9844 94.2493 70.0118 92.5473 70.0118 91.014C70.0118 90.1247 69.6591 89.68 68.9538 89.68C68.3404 89.68 67.5738 89.9713 66.6538 90.554C65.7338 91.1367 64.8444 91.9033 63.9858 92.854C62.6671 94.326 61.6551 95.9667 60.9498 97.776C60.2751 99.5547 59.9378 101.425 59.9378 103.388C59.9378 105.872 60.4898 107.359 61.5938 107.85C62.0538 107.789 62.5904 107.651 63.2038 107.436C63.8171 107.221 64.4764 106.945 65.1818 106.608C65.8871 106.24 66.6078 105.826 67.3438 105.366C68.1104 104.906 68.8464 104.415 69.5518 103.894C69.6744 103.986 69.7818 104.124 69.8738 104.308C69.9658 104.492 70.0118 104.661 70.0118 104.814C69.4904 105.458 68.8924 106.087 68.2178 106.7C67.5431 107.313 66.8378 107.881 66.1018 108.402C65.3658 108.893 64.6451 109.307 63.9398 109.644C63.2651 110.012 62.6671 110.242 62.1458 110.334C61.1338 110.242 60.1831 109.92 59.2938 109.368C58.4044 108.847 57.6224 108.157 56.9478 107.298C56.3038 106.439 55.7824 105.458 55.3838 104.354C55.0158 103.25 54.8318 102.1 54.8318 100.904ZM76.4065 91.382C76.2531 91.198 76.1151 90.8147 75.9925 90.232C75.8698 89.6187 75.8085 89.0973 75.8085 88.668C76.6058 88.7293 77.3725 88.7907 78.1085 88.852C78.8445 88.8827 79.5191 88.9133 80.1325 88.944C80.5925 88.024 81.0831 87.1193 81.6045 86.23C82.1565 85.31 82.6778 84.482 83.1685 83.746C83.6898 82.9793 84.1651 82.3353 84.5945 81.814C85.0545 81.2927 85.4071 80.9553 85.6525 80.802C85.9591 80.802 86.3425 80.8633 86.8025 80.986C87.2931 81.078 87.7838 81.216 88.2745 81.4C88.7651 81.5533 89.2098 81.722 89.6085 81.906C90.0071 82.09 90.2831 82.274 90.4365 82.458C89.5165 83.6233 88.7191 84.712 88.0445 85.724C87.4005 86.7053 86.6951 87.84 85.9285 89.128C86.5418 89.128 87.1551 89.1127 87.7685 89.082C88.4125 89.0513 89.0565 89.0053 89.7005 88.944C89.8538 89.0973 89.9765 89.2967 90.0685 89.542C90.1605 89.7567 90.2065 89.9867 90.2065 90.232C88.7038 90.784 86.8791 91.0907 84.7325 91.152C83.9658 92.624 83.2758 94.096 82.6625 95.568C82.0798 97.0093 81.5738 98.4047 81.1445 99.754C80.7458 101.103 80.4238 102.376 80.1785 103.572C79.9638 104.768 79.8565 105.841 79.8565 106.792C79.8565 108.141 80.3625 108.893 81.3745 109.046C82.2945 108.923 83.1685 108.693 83.9965 108.356C84.8245 108.019 85.5605 107.589 86.2045 107.068C86.3885 107.344 86.4958 107.574 86.5265 107.758C86.3425 108.034 86.0205 108.356 85.5605 108.724C85.1311 109.092 84.6558 109.445 84.1345 109.782C83.6131 110.15 83.1071 110.457 82.6165 110.702C82.1258 110.947 81.7578 111.085 81.5125 111.116C80.7458 111.085 79.9791 110.917 79.2125 110.61C78.4458 110.303 77.7405 109.92 77.0965 109.46C76.4831 109 75.9771 108.494 75.5785 107.942C75.1798 107.359 74.9805 106.792 74.9805 106.24C74.9805 105.504 75.0725 104.584 75.2565 103.48C75.4711 102.345 75.7625 101.119 76.1305 99.8C76.4985 98.4813 76.9278 97.1013 77.4185 95.66C77.9091 94.2187 78.4458 92.7927 79.0285 91.382H76.4065ZM95.2923 110.61C93.5443 110.426 92.149 109.659 91.1063 108.31C90.0637 106.961 89.5423 105.243 89.5423 103.158C89.5423 101.931 89.7263 100.659 90.0943 99.34C90.4623 98.0213 90.9837 96.7487 91.6583 95.522C92.333 94.2647 93.1303 93.084 94.0503 91.98C94.9703 90.876 95.967 89.9253 97.0403 89.128C98.727 87.8707 100.306 87.242 101.778 87.242C102.76 87.7633 103.726 88.852 104.676 90.508C104.83 90.508 104.968 90.508 105.09 90.508C105.213 90.4773 105.351 90.462 105.504 90.462C107.13 90.462 107.942 91.9033 107.942 94.786C107.942 96.718 107.62 98.558 106.976 100.306C106.363 102.023 105.489 103.587 104.354 104.998C103.25 106.409 101.916 107.605 100.352 108.586C98.819 109.537 97.1323 110.211 95.2923 110.61ZM97.6383 96.12C97.117 96.8253 96.6263 97.592 96.1663 98.42C95.7063 99.248 95.3077 100.091 94.9703 100.95C94.633 101.778 94.3723 102.591 94.1883 103.388C94.0043 104.155 93.9123 104.845 93.9123 105.458C93.9123 106.194 94.035 106.899 94.2803 107.574C94.5257 108.249 94.8017 108.632 95.1083 108.724C96.4883 108.417 97.7457 107.85 98.8803 107.022C100.046 106.163 101.042 105.105 101.87 103.848C102.729 102.591 103.388 101.165 103.848 99.57C104.339 97.9753 104.584 96.2733 104.584 94.464C104.584 93.6667 104.538 93.038 104.446 92.578C104.354 92.118 104.201 91.7193 103.986 91.382C102.637 91.7807 101.426 92.4247 100.352 93.314C99.3097 94.2033 98.405 95.1387 97.6383 96.12ZM109.065 108.08C109.218 107.191 109.479 106.025 109.847 104.584C110.246 103.112 110.706 101.563 111.227 99.938C111.748 98.282 112.3 96.626 112.883 94.97C113.466 93.314 114.033 91.8267 114.585 90.508C114.984 89.5573 115.336 88.8213 115.643 88.3C115.95 87.748 116.287 87.288 116.655 86.92C117.084 86.9813 117.529 87.0887 117.989 87.242C118.449 87.3953 118.894 87.5793 119.323 87.794C119.752 88.0087 120.136 88.2387 120.473 88.484C120.81 88.6987 121.071 88.9133 121.255 89.128C120.427 90.1093 119.691 91.2287 119.047 92.486C118.434 93.7433 117.805 95.3533 117.161 97.316C118.817 95.844 120.274 94.4333 121.531 93.084C122.819 91.7347 124.015 90.232 125.119 88.576C125.303 88.4227 125.625 88.346 126.085 88.346C126.514 88.346 126.928 88.4227 127.327 88.576C127.726 88.6987 128.002 88.8827 128.155 89.128C127.603 90.6 127.327 92.0567 127.327 93.498C127.327 94.8473 127.526 95.8593 127.925 96.534C127.894 96.718 127.68 97.0707 127.281 97.592C126.913 98.1133 126.499 98.604 126.039 99.064C125.211 98.6347 124.475 98.052 123.831 97.316C123.187 96.5493 122.712 95.7213 122.405 94.832C120.964 95.844 119.737 96.8407 118.725 97.822C117.713 98.7727 116.839 99.846 116.103 101.042C115.398 102.207 114.784 103.557 114.263 105.09C113.772 106.623 113.297 108.448 112.837 110.564C112.561 110.533 112.224 110.426 111.825 110.242C111.457 110.089 111.074 109.889 110.675 109.644C110.307 109.399 109.97 109.138 109.663 108.862C109.356 108.586 109.157 108.325 109.065 108.08ZM146.018 101.87C145.312 104.109 144.607 106.148 143.902 107.988C143.196 109.828 142.445 111.515 141.648 113.048C140.85 114.612 139.992 116.038 139.072 117.326C138.152 118.645 137.14 119.887 136.036 121.052C134.625 122.524 133.168 123.643 131.666 124.41C130.163 125.207 128.66 125.606 127.158 125.606C126.391 125.606 125.624 125.514 124.858 125.33C124.122 125.177 123.432 124.947 122.788 124.64C122.113 124.364 121.53 124.027 121.04 123.628C120.518 123.26 120.15 122.861 119.936 122.432C119.936 122.064 120.15 121.742 120.58 121.466C120.948 121.803 121.254 122.064 121.5 122.248C121.745 122.432 121.99 122.585 122.236 122.708C122.45 122.831 122.696 122.907 122.972 122.938C123.217 122.969 123.508 122.984 123.846 122.984C125.594 122.984 127.296 122.463 128.952 121.42C130.638 120.408 132.218 118.951 133.69 117.05C135.192 115.179 136.557 112.895 137.784 110.196C139.01 107.528 140.053 104.538 140.912 101.226C140.513 101.839 140.022 102.591 139.44 103.48C138.857 104.369 138.213 105.259 137.508 106.148C136.802 107.007 136.066 107.789 135.3 108.494C134.564 109.199 133.843 109.675 133.138 109.92C132.647 109.889 132.126 109.782 131.574 109.598C131.052 109.445 130.546 109.215 130.056 108.908C129.596 108.601 129.182 108.233 128.814 107.804C128.446 107.375 128.2 106.884 128.078 106.332C128.078 105.443 128.108 104.737 128.17 104.216C128.231 103.664 128.338 103.066 128.492 102.422C128.768 101.257 129.166 99.938 129.688 98.466C130.24 96.994 130.868 95.5527 131.574 94.142C132.31 92.7007 133.107 91.3667 133.966 90.14C134.855 88.8827 135.775 87.9013 136.726 87.196C136.971 87.196 137.278 87.2267 137.646 87.288C138.014 87.3187 138.397 87.3953 138.796 87.518C139.194 87.6407 139.578 87.794 139.946 87.978C140.314 88.1313 140.636 88.346 140.912 88.622C140.574 88.9287 139.838 89.956 138.704 91.704C137.569 93.452 136.312 95.9667 134.932 99.248C134.778 99.5853 134.594 100.076 134.38 100.72C134.165 101.364 133.95 102.039 133.736 102.744C133.552 103.449 133.383 104.139 133.23 104.814C133.076 105.489 133 106.025 133 106.424C133 106.669 133.03 106.853 133.092 106.976C133.184 107.099 133.26 107.191 133.322 107.252C133.874 107.16 134.61 106.715 135.53 105.918C136.45 105.09 137.492 103.817 138.658 102.1C139.394 100.996 140.068 99.9073 140.682 98.834C141.295 97.73 141.893 96.626 142.476 95.522C143.089 94.418 143.718 93.2833 144.362 92.118C145.006 90.9527 145.696 89.7567 146.432 88.53C146.83 88.53 147.26 88.576 147.72 88.668C148.18 88.76 148.624 88.8827 149.054 89.036C149.483 89.1587 149.851 89.312 150.158 89.496C150.495 89.6493 150.74 89.818 150.894 90.002C149.943 92.026 149.054 94.004 148.226 95.936C147.398 97.868 146.662 99.846 146.018 101.87Z" fill="white"/>
<defs>
<linearGradient id="paint0_linear_1_16" x1="154.5" y1="36.5" x2="83" y2="145" gradientUnits="userSpaceOnUse">
<stop stop-color="#1E1E1E"/>
<stop offset="1" stop-color="white" stop-opacity="0"/>
</linearGradient>
</defs>
</svg>
